<?xml version="1.0" standalone="no"?>
<!DOCTYPE svg PUBLIC "-//W3C//DTD SVG 20010904//EN"
 "http://www.w3.org/TR/2001/REC-SVG-20010904/DTD/svg10.dtd">
<svg version="1.0" xmlns="http://www.w3.org/2000/svg"
 width="330.000000pt" height="330.000000pt" viewBox="0 0 330.000000 330.000000"
 preserveAspectRatio="xMidYMid meet">
<metadata>
Created by potrace 1.11, written by Peter Selinger 2001-2013
</metadata>
<g transform="translate(0.000000,330.000000) scale(0.100000,-0.100000)"
fill="#000000" stroke="none">
<path d="M1246 3212 c24 -24 149 -113 204 -146 13 -8 13 -7 1 7 -16 20 -1 23
32 6 21 -11 21 -10 -2 15 -14 14 -34 26 -46 26 -11 0 -62 27 -113 60 -51 33
-96 60 -99 60 -4 0 6 -13 23 -28z"/>
<path d="M1997 3124 c27 -81 35 -94 65 -94 14 0 8 15 -29 78 -63 106 -67 108
-36 16z"/>
<path d="M1655 3167 c-49 -23 -49 -24 -27 -36 13 -7 24 -11 25 -9 1 2 15 18
31 36 17 17 28 32 25 32 -2 0 -26 -11 -54 -23z"/>
<path d="M1530 3140 c-13 -9 -13 -11 0 -20 9 -5 16 -6 18 0 2 5 11 6 20 3 15
-6 15 -5 3 10 -16 20 -20 20 -41 7z"/>
<path d="M1250 3138 c-1 -26 25 -60 59 -78 45 -22 55 -25 46 -10 -3 6 4 10 16
10 l22 0 -23 25 c-26 28 -72 37 -50 10 7 -9 11 -18 8 -20 -6 -7 -38 5 -38 14
-1 9 -40 57 -40 49z"/>
<path d="M1720 3099 c0 -5 5 -7 10 -4 6 3 10 8 10 11 0 2 -4 4 -10 4 -5 0 -10
-5 -10 -11z"/>
<path d="M1847 3083 c18 -26 17 -27 -2 -18 -11 4 -36 10 -55 12 -27 3 -31 2
-20 -6 8 -6 23 -11 33 -11 10 0 39 -14 65 -32 38 -26 59 -33 109 -36 35 -3 63
-1 63 3 0 4 -14 20 -30 35 -25 23 -31 26 -38 13 -7 -12 -20 -8 -76 26 -63 39
-66 40 -49 14z"/>
<path d="M1140 3087 c3 -3 29 -14 58 -25 52 -20 69 -17 33 5 -19 12 -100 30
-91 20z"/>
<path d="M2212 3030 c0 -14 2 -19 5 -12 2 6 2 18 0 25 -3 6 -5 1 -5 -13z"/>
<path d="M1145 3002 l30 -16 -30 -6 c-16 -4 -36 -2 -44 4 -12 9 -13 7 -8 -7 4
-10 7 -22 7 -27 0 -4 10 -6 23 -3 12 3 19 2 15 -2 -4 -4 -26 -9 -48 -11 -47
-4 -63 -11 -55 -25 8 -11 11 -12 -55 6 -75 20 -78 19 -45 -15 23 -24 25 -30
11 -30 -9 0 -14 -4 -11 -10 3 -5 15 -10 27 -10 16 0 18 -3 9 -13 -6 -8 -8 -17
-5 -20 4 -3 -7 -9 -22 -12 -94 -21 -123 -30 -121 -39 1 -5 -2 -10 -8 -11 -5 0
-16 -4 -23 -8 -7 -5 -24 -11 -39 -13 -24 -5 -25 -3 -19 28 7 38 -5 28 -24 -19
-7 -18 -9 -41 -5 -50 6 -16 10 -14 32 12 l25 30 -4 -32 c-5 -38 0 -40 34 -13
42 33 75 42 83 22 6 -15 -6 -29 -42 -50 -6 -4 -13 -14 -15 -22 -2 -8 -13 -30
-26 -48 -29 -40 -22 -54 21 -41 40 11 40 11 31 -2 -5 -9 7 -10 42 -4 27 4 52
12 56 18 6 9 8 8 8 -1 0 -9 8 -11 23 -8 l22 6 -23 -12 c-12 -6 -25 -22 -28
-35 -9 -34 3 -40 17 -10 13 30 33 26 24 -4 -4 -11 -2 -19 4 -19 6 0 11 5 11
10 0 6 12 28 26 50 25 37 28 39 44 25 16 -15 18 -14 24 10 4 15 4 54 1 88 l-5
62 17 -32 c17 -33 31 -38 67 -24 16 6 8 16 -53 59 -39 29 -71 54 -71 56 0 2
21 2 48 -1 l47 -4 -35 30 c-39 34 -35 39 13 15 31 -17 61 -22 125 -23 19 -1
31 -5 27 -11 -3 -5 -2 -10 3 -10 23 0 18 29 -7 51 l-28 24 21 17 c21 17 21 17
-9 17 -16 0 -62 -3 -102 -7 -39 -4 -69 -4 -67 0 3 4 12 8 20 8 8 0 39 11 67
24 29 13 61 27 72 31 l20 7 -20 8 c-14 6 -16 9 -5 10 8 2 18 2 23 1 4 0 7 4 7
9 0 6 -10 10 -22 11 -13 0 -17 3 -10 6 29 11 7 20 -55 20 l-68 1 30 -16z
m-296 -263 c-28 -21 -35 -18 -18 9 7 11 19 18 27 14 11 -4 9 -9 -9 -23z m204
-39 c22 0 -12 -23 -38 -26 -14 -1 -34 -5 -45 -9 -11 -3 -20 -2 -20 3 0 12 62
42 78 36 8 -2 19 -4 25 -4z m-173 -99 c0 -5 -7 -11 -15 -15 -9 -3 -15 0 -15 9
0 8 7 15 15 15 8 0 15 -4 15 -9z"/>
<path d="M1855 3000 c3 -5 12 -7 20 -3 21 7 19 13 -6 13 -11 0 -18 -4 -14 -10z"/>
<path d="M1775 2990 c-3 -5 -2 -10 4 -10 5 0 13 5 16 10 3 6 2 10 -4 10 -5 0
-13 -4 -16 -10z"/>
<path d="M1840 2979 c0 -8 26 -19 46 -19 12 0 12 3 3 13 -13 13 -49 18 -49 6z"/>
<path d="M1804 2945 c11 -8 26 -15 33 -15 7 0 13 -6 13 -14 0 -17 18 -31 27
-22 11 11 -50 66 -71 66 -21 -1 -21 -1 -2 -15z"/>
<path d="M2338 2939 c15 -6 30 -5 40 1 13 7 8 9 -23 9 -35 0 -37 -1 -17 -10z"/>
<path d="M2424 2915 c-10 -8 -14 -15 -8 -15 6 0 17 7 24 15 16 19 9 19 -16 0z"/>
<path d="M2000 2905 c0 -12 5 -15 16 -11 9 4 22 2 29 -4 14 -11 81 -17 91 -8
3 3 -19 11 -48 18 -29 6 -61 14 -70 17 -12 3 -18 -1 -18 -12z"/>
<path d="M2234 2844 c-4 -11 -9 -23 -11 -27 -3 -4 19 -5 49 -2 l53 6 -29 -17
c-28 -16 -29 -17 -9 -28 11 -6 18 -17 16 -23 -3 -8 4 -13 16 -13 20 0 29 -14
14 -23 -5 -2 -2 -2 5 -1 9 3 11 -7 8 -33 -5 -36 7 -63 26 -63 6 0 7 10 3 23
-3 12 -10 36 -14 52 -4 17 -12 41 -16 55 -6 20 -5 23 6 14 8 -6 34 -16 59 -23
40 -12 43 -14 27 -26 -19 -13 -6 -32 13 -20 6 3 10 2 10 -4 0 -8 69 -51 82
-51 2 0 4 18 4 40 1 21 -1 39 -5 38 -14 -3 -62 27 -75 46 -18 28 -129 84 -183
92 -36 6 -44 4 -49 -12z m179 -60 c17 -4 27 -13 27 -24 0 -17 -4 -16 -45 7
-46 25 -58 38 -27 29 9 -3 29 -8 45 -12z"/>
<path d="M2515 2850 c-3 -5 -2 -10 4 -10 5 0 13 5 16 10 3 6 2 10 -4 10 -5 0
-13 -4 -16 -10z"/>
<path d="M1270 2761 c0 -6 5 -13 10 -16 6 -3 10 1 10 9 0 9 -4 16 -10 16 -5 0
-10 -4 -10 -9z"/>
<path d="M637 2727 c-8 -18 -31 -45 -51 -61 -35 -26 -40 -27 -81 -17 -24 6
-47 11 -52 11 -18 0 25 -21 74 -35 50 -15 53 -14 86 7 40 26 71 81 62 109 -9
28 -23 23 -38 -14z"/>
<path d="M2296 2685 c4 -8 10 -15 14 -15 4 0 10 7 14 15 4 10 -1 15 -14 15
-13 0 -18 -5 -14 -15z"/>
<path d="M2410 2670 c0 -5 5 -10 10 -10 6 0 10 5 10 10 0 6 -4 10 -10 10 -5 0
-10 -4 -10 -10z"/>
<path d="M2601 2667 c2 -1 13 -9 24 -17 19 -14 19 -14 6 3 -7 9 -18 17 -24 17
-6 0 -8 -1 -6 -3z"/>
<path d="M2450 2640 c0 -5 10 -15 23 -21 22 -12 22 -12 3 10 -21 23 -26 26
-26 11z"/>
<path d="M2446 2605 c4 -8 11 -15 16 -15 6 0 5 6 -2 15 -7 8 -14 15 -16 15 -2
0 -1 -7 2 -15z"/>
<path d="M1510 2600 c0 -12 28 -25 36 -17 3 3 -4 10 -15 17 -15 7 -21 7 -21 0z"/>
<path d="M539 2587 c-9 -7 -16 -23 -15 -37 1 -22 -4 -25 -38 -28 -24 -2 -42 2
-47 10 -7 10 -9 9 -9 -4 0 -10 -6 -18 -12 -18 -10 0 -10 -2 0 -8 7 -5 10 -15
8 -23 -3 -8 -10 -33 -16 -57 -9 -36 -14 -41 -25 -32 -12 10 -14 6 -10 -29 2
-22 6 -44 9 -49 2 -4 1 -14 -5 -22 -7 -12 -9 -12 -9 4 0 15 -3 16 -15 6 -8 -7
-15 -19 -15 -27 0 -22 -86 -56 -124 -49 -26 5 -28 4 -12 -5 17 -10 15 -13 -20
-30 -22 -10 -30 -17 -19 -14 56 12 119 16 106 6 -12 -8 -10 -11 12 -16 15 -4
27 -11 27 -15 0 -11 -59 -60 -71 -60 -6 0 -8 -4 -4 -9 3 -6 -3 -14 -12 -20
-13 -7 -14 -10 -4 -11 10 0 7 -8 -10 -27 l-24 -27 37 27 c42 31 53 34 44 11
-6 -15 -4 -15 10 -3 10 8 19 13 21 11 2 -1 15 5 28 14 14 9 28 14 32 10 3 -3
1 -6 -6 -6 -7 0 -10 -4 -7 -8 3 -5 -6 -21 -20 -37 -28 -33 -29 -44 -9 -71 13
-18 14 -18 15 -1 0 10 5 15 10 12 8 -5 15 22 11 47 0 4 6 5 14 2 11 -4 15 1
16 17 l1 24 7 -25 c7 -25 8 -25 15 -3 4 12 4 32 1 45 -3 12 -1 29 4 37 8 13
12 13 26 1 15 -13 20 -12 35 8 18 22 18 21 25 -50 5 -57 3 -80 -9 -103 -24
-47 -8 -44 40 8 50 54 55 79 19 95 l-26 12 21 22 c15 16 17 24 8 30 -10 6 -10
8 0 8 6 0 12 9 12 20 0 11 -5 20 -11 20 -5 0 -7 5 -4 10 9 15 -22 60 -40 60
-8 0 -15 -5 -15 -12 0 -6 -3 -8 -6 -5 -4 4 -1 13 6 21 6 9 10 21 8 27 -5 14
-38 21 -38 8 0 -5 -5 -9 -10 -9 -6 0 -3 12 7 27 l17 26 -39 -7 -40 -7 30 16
c46 23 105 82 105 103 0 24 -28 36 -46 21 -11 -9 -14 -8 -14 5 0 9 -7 16 -15
16 -8 0 -15 5 -15 11 0 7 16 8 45 3 53 -8 78 7 69 41 -4 17 0 24 15 28 26 6
27 23 3 36 -11 6 -23 5 -33 -2z"/>
<path d="M1915 2570 c3 -5 8 -10 11 -10 2 0 4 5 4 10 0 6 -5 10 -11 10 -5 0
-7 -4 -4 -10z"/>
<path d="M1045 2547 c-9 -32 -5 -39 15 -27 11 7 11 14 3 32 l-11 23 -7 -28z"/>
<path d="M1510 2534 c0 -8 5 -12 10 -9 6 3 10 10 10 16 0 5 -4 9 -10 9 -5 0
-10 -7 -10 -16z"/>
<path d="M1843 2535 c-7 -8 -9 -16 -5 -19 10 -6 43 19 35 27 -9 10 -16 8 -30
-8z"/>
<path d="M1576 2504 c-3 -9 -4 -20 0 -25 7 -12 24 -11 24 2 0 5 -5 7 -11 3 -8
-4 -9 0 -4 15 7 24 0 29 -9 5z"/>
<path d="M2526 2455 l-68 -22 38 -6 c45 -8 144 -9 144 -2 0 15 -25 55 -34 54
-6 -1 -42 -11 -80 -24z"/>
<path d="M2645 2450 c13 -26 19 -29 35 -20 11 6 20 15 20 20 0 12 -33 30 -55
30 -14 0 -14 -3 0 -30z"/>
<path d="M1297 2463 c-10 -16 11 -39 23 -27 8 8 7 14 -4 23 -8 7 -17 8 -19 4z"/>
<path d="M1883 2447 c-34 -38 -36 -47 -8 -34 14 7 28 20 31 30 9 28 0 30 -23
4z"/>
<path d="M1560 2449 c0 -6 10 -13 21 -16 21 -6 21 -7 4 -19 -21 -16 -14 -30
10 -21 9 4 15 19 15 37 0 25 -4 30 -25 30 -14 0 -25 -5 -25 -11z"/>
<path d="M1945 2440 c-3 -5 1 -10 9 -10 8 0 18 5 21 10 3 6 -1 10 -9 10 -8 0
-18 -4 -21 -10z"/>
<path d="M2690 2422 l-23 -18 29 -23 29 -23 3 26 c2 14 -1 33 -6 41 -7 14 -11
14 -32 -3z"/>
<path d="M2238 2413 c7 -3 16 -2 19 1 4 3 -2 6 -13 5 -11 0 -14 -3 -6 -6z"/>
<path d="M1901 2381 c-30 -42 -26 -62 5 -23 14 17 33 32 42 32 15 0 15 2 2 10
-22 14 -27 13 -49 -19z"/>
<path d="M2455 2400 c-11 -18 130 -19 148 -1 8 8 -10 11 -65 11 -42 0 -80 -4
-83 -10z"/>
<path d="M1968 2358 c-19 -24 -40 -53 -47 -65 -10 -21 -9 -23 10 -23 12 0 30
6 38 14 9 8 51 29 94 46 42 18 77 36 77 40 0 13 -52 30 -94 30 -39 0 -47 -4
-78 -42z"/>
<path d="M2602 2387 c-18 -5 -31 -15 -28 -21 3 -6 12 -35 21 -63 9 -29 21 -53
27 -53 7 0 6 6 -2 15 -10 12 -7 17 16 27 16 7 30 13 32 14 2 1 0 23 -3 48 -8
49 -11 50 -63 33z"/>
<path d="M2490 2361 c25 -13 39 -16 48 -9 16 14 15 2 -3 -26 -11 -17 -12 -23
-3 -23 7 0 23 -3 36 -7 21 -7 22 -6 10 21 -18 43 -29 52 -78 58 l-45 6 35 -20z"/>
<path d="M2676 2354 c9 -36 8 -36 28 -28 21 8 17 23 -13 42 -22 15 -22 14 -15
-14z"/>
<path d="M1890 2313 c-64 -81 -69 -91 -22 -52 23 19 42 38 42 42 0 5 9 22 21
38 37 52 5 30 -41 -28z"/>
<path d="M1651 2333 c1 -15 -1 -44 -5 -63 l-8 -35 18 24 c21 29 25 92 6 99 -8
2 -12 -6 -11 -25z"/>
<path d="M1231 2337 c-11 -14 -10 -26 10 -112 19 -81 28 -86 29 -15 0 75 -9
140 -20 140 -4 0 -12 -6 -19 -13z"/>
<path d="M595 2332 c-21 -4 -55 -35 -55 -49 1 -13 49 -45 59 -38 5 3 12 -1 14
-7 4 -9 8 -9 14 -3 4 6 15 10 23 10 8 0 19 16 25 38 l11 39 12 -27 c7 -15 15
-25 18 -22 3 3 0 18 -8 34 -11 24 -20 28 -53 29 -22 0 -49 -1 -60 -4z"/>
<path d="M505 2321 c-3 -5 -1 -12 5 -16 5 -3 10 1 10 9 0 18 -6 21 -15 7z"/>
<path d="M1540 2310 c0 -5 4 -10 9 -10 6 0 13 5 16 10 3 6 -1 10 -9 10 -9 0
-16 -4 -16 -10z"/>
<path d="M2189 2299 c13 -11 26 -17 29 -15 7 8 -25 36 -40 36 -7 -1 -3 -9 11
-21z"/>
<path d="M2044 2297 l-60 -9 -20 -51 c-10 -28 -30 -64 -43 -80 l-25 -30 32 17
c18 9 55 30 82 46 28 17 54 30 57 30 4 0 -18 -22 -48 -50 l-54 -50 69 30 c38
17 70 29 72 27 2 -2 -30 -32 -71 -67 -41 -35 -73 -66 -70 -68 6 -7 115 69 110
77 -2 5 18 18 46 31 54 26 82 51 63 57 -6 2 -20 11 -30 19 -18 15 -18 15 1 6
37 -17 75 -23 75 -11 0 14 -26 39 -34 32 -3 -4 -6 0 -6 9 0 22 -33 48 -61 47
-13 -1 -51 -6 -85 -12z"/>
<path d="M1018 2265 c2 -14 8 -27 12 -30 5 -3 6 5 4 17 -3 13 15 -15 40 -62
25 -47 45 -81 45 -77 1 4 -6 36 -15 70 -12 50 -22 67 -48 85 -41 28 -44 28
-38 -3z"/>
<path d="M2299 2269 c13 -11 26 -17 29 -14 7 6 -29 34 -43 34 -5 0 1 -9 14
-20z"/>
<path d="M2430 2275 c7 -9 15 -13 17 -11 7 7 -7 26 -19 26 -6 0 -6 -6 2 -15z"/>
<path d="M1438 2264 c-5 -4 -8 -21 -8 -38 1 -26 2 -28 11 -13 11 19 8 63 -3
51z"/>
<path d="M3065 2250 c-3 -5 -1 -10 4 -10 6 0 11 5 11 10 0 6 -2 10 -4 10 -3 0
-8 -4 -11 -10z"/>
<path d="M2640 2242 c0 -12 19 -26 26 -19 2 2 -2 10 -11 17 -9 8 -15 8 -15 2z"/>
<path d="M2565 2230 c4 -6 11 -8 16 -5 14 9 11 15 -7 15 -8 0 -12 -5 -9 -10z"/>
<path d="M2935 2175 c13 -112 35 -167 48 -117 3 9 5 -7 6 -36 1 -33 5 -51 11
-47 6 4 9 18 8 33 -1 15 3 36 9 48 7 11 8 26 4 33 -10 15 -3 51 9 51 12 0 33
68 25 81 -4 6 -18 -5 -34 -28 l-26 -38 -3 29 c-3 22 -6 26 -13 15 -6 -10 -9
-10 -9 -1 0 6 -5 12 -10 12 -7 0 -7 -6 0 -20 7 -14 7 -20 0 -20 -5 0 -11 7
-11 15 -3 29 -4 33 -12 42 -5 4 -6 -19 -2 -52z m64 -72 c1 -7 -3 -13 -9 -13
-5 0 -10 15 -9 33 0 27 2 29 9 12 5 -11 9 -26 9 -32z"/>
<path d="M2650 2198 c0 -9 5 -20 11 -23 17 -11 18 -2 3 19 -12 17 -14 17 -14
4z"/>
<path d="M1491 2195 c1 -19 18 -51 18 -35 0 8 -4 22 -9 30 -5 8 -9 11 -9 5z"/>
<path d="M2728 2173 c-14 -16 -14 -22 0 -53 l16 -35 7 35 c5 28 7 30 8 9 1
-25 46 -78 56 -67 12 11 -49 128 -66 128 -3 0 -13 -8 -21 -17z"/>
<path d="M2194 2135 l-39 -36 53 26 c29 14 50 30 47 35 -10 16 -20 12 -61 -25z"/>
<path d="M1070 2134 c0 -8 5 -12 10 -9 6 4 8 11 5 16 -9 14 -15 11 -15 -7z"/>
<path d="M2685 2131 c-9 -15 8 -35 24 -30 8 3 7 10 -2 23 -10 14 -16 16 -22 7z"/>
<path d="M2916 2090 c15 -28 29 -48 31 -46 6 6 -40 96 -50 96 -4 0 4 -23 19
-50z"/>
<path d="M2316 2081 c-5 -8 -2 -20 8 -29 17 -17 19 -9 7 22 -6 15 -10 16 -15
7z"/>
<path d="M1203 2073 c-15 -5 -17 -29 -4 -37 4 -3 16 3 25 13 13 14 14 20 4 23
-7 3 -19 3 -25 1z"/>
<path d="M2690 2060 c0 -5 7 -10 16 -10 8 0 12 5 9 10 -3 6 -10 10 -16 10 -5
0 -9 -4 -9 -10z"/>
<path d="M2900 2068 c0 -4 5 -19 10 -34 10 -25 9 -26 -6 -13 -15 13 -15 11 1
-21 10 -19 19 -37 22 -40 8 -9 20 22 16 43 -4 21 -42 79 -43 65z"/>
<path d="M3060 2042 c0 -21 6 -31 20 -35 15 -4 18 -10 13 -24 -6 -17 -5 -17
18 2 13 11 25 20 27 21 2 1 -15 16 -38 34 l-40 32 0 -30z"/>
<path d="M1250 2051 c0 -5 9 -19 20 -32 l21 -24 -16 33 c-15 31 -25 41 -25 23z"/>
<path d="M1142 2017 l-33 -34 50 -46 c28 -26 54 -47 58 -47 4 1 -10 17 -32 37
-23 20 -31 33 -20 29 11 -4 16 -4 12 0 -4 4 0 18 8 31 12 17 13 28 5 43 -6 11
-12 20 -13 20 -2 0 -18 -15 -35 -33z"/>
<path d="M2337 2023 c-3 -5 -8 -28 -13 -53 -11 -62 -11 -63 -12 -82 -1 -10 -9
-18 -18 -18 -8 0 -12 -5 -9 -10 4 -6 0 -24 -9 -41 -14 -28 -14 -30 3 -24 9 3
41 -7 71 -21 30 -14 65 -30 77 -35 24 -9 30 -35 15 -67 -5 -9 -24 -50 -44 -89
-19 -40 -32 -73 -29 -73 4 0 25 18 46 40 21 22 43 40 47 40 9 0 4 -72 -6 -88
-9 -16 5 -72 19 -72 13 0 48 126 44 157 -1 10 1 26 6 36 4 9 10 41 14 70 l7
52 8 -42 c10 -54 22 -55 31 -2 6 34 1 52 -34 126 -23 47 -43 84 -46 82 -2 -3
-15 -43 -29 -89 l-25 -85 -1 50 c-1 57 -29 147 -48 153 -8 2 -10 -2 -5 -14 4
-12 3 -15 -5 -10 -7 4 -12 1 -12 -8 0 -8 3 -16 8 -19 4 -2 1 -2 -5 -1 -7 2
-13 0 -13 -4 0 -5 -6 -16 -12 -25 -11 -14 -13 -1 -12 78 2 91 0 104 -9 88z"/>
<path d="M2873 2000 c6 -16 13 -27 15 -25 7 7 -8 55 -17 55 -5 0 -4 -13 2 -30z"/>
<path d="M240 2001 c0 -6 4 -13 10 -16 6 -3 7 1 4 9 -7 18 -14 21 -14 7z"/>
<path d="M885 1936 c20 -24 43 -47 52 -51 17 -6 15 -3 -39 59 -10 11 -18 23
-18 28 0 4 -7 8 -16 8 -11 0 -5 -13 21 -44z"/>
<path d="M3150 1975 c0 -2 15 -12 33 -21 l32 -17 -19 22 c-17 19 -46 29 -46
16z"/>
<path d="M261 1954 c0 -11 3 -14 6 -6 3 7 2 16 -1 19 -3 4 -6 -2 -5 -13z"/>
<path d="M418 1960 c6 -8 12 -22 12 -33 0 -10 5 -17 13 -14 20 6 14 28 -13 45
-18 11 -21 12 -12 2z"/>
<path d="M570 1920 c0 -32 4 -50 12 -50 9 0 9 -3 0 -12 -17 -17 -15 -103 3
-118 8 -7 15 -9 15 -4 0 4 5 3 12 -4 18 -18 30 -15 24 6 -3 9 -7 35 -11 57 -3
22 -8 49 -12 60 -4 11 -7 31 -8 45 -3 35 -16 70 -26 70 -5 0 -9 -22 -9 -50z"/>
<path d="M662 1923 c-12 -23 -23 -165 -13 -158 10 5 35 164 28 172 -3 3 -10
-4 -15 -14z"/>
<path d="M832 1921 c7 -11 23 -25 37 -31 26 -12 26 -11 -3 19 -33 35 -53 41
-34 12z"/>
<path d="M215 1879 c-27 -23 -52 -43 -55 -46 -12 -13 48 10 73 28 33 24 34 18
5 -29 l-21 -35 28 19 c27 18 29 18 22 1 -4 -12 -3 -16 4 -12 6 4 8 13 5 21 -3
7 1 19 7 26 14 14 8 60 -8 64 -6 2 -32 -15 -60 -37z"/>
<path d="M735 1910 c-3 -5 -2 -10 4 -10 5 0 13 5 16 10 3 6 2 10 -4 10 -5 0
-13 -4 -16 -10z"/>
<path d="M957 1868 c-25 -43 -6 -59 21 -17 19 31 21 49 4 49 -4 0 -15 -14 -25
-32z"/>
<path d="M1023 1875 c-13 -14 -6 -85 8 -85 7 0 49 53 49 63 0 3 -10 11 -23 20
-18 12 -25 12 -34 2z"/>
<path d="M3100 1863 c0 -11 12 -29 27 -38 l26 -18 -23 34 c-13 19 -25 36 -27
38 -2 2 -3 -5 -3 -16z"/>
<path d="M682 1793 c-18 -43 -32 -83 -32 -89 0 -13 59 -40 78 -36 6 2 12 -2
12 -8 0 -18 22 -11 57 20 30 27 51 35 76 31 4 0 7 6 7 14 0 8 -6 12 -14 9 -18
-7 -58 14 -51 27 4 5 -3 9 -13 9 -18 0 -50 26 -41 34 2 2 20 13 39 25 l35 21
-32 0 c-17 0 -35 5 -38 10 -3 6 -16 10 -29 10 -19 0 -28 -13 -54 -77z"/>
<path d="M2600 1836 c5 -13 6 -33 4 -43 -3 -11 2 -25 10 -32 17 -15 22 -36 6
-26 -15 9 -12 -18 4 -41 14 -18 15 -18 25 6 6 16 10 19 10 9 1 -9 8 -19 16
-23 8 -3 16 -13 16 -23 1 -10 4 -4 8 12 7 30 -7 75 -23 75 -5 0 -3 7 4 15 7 9
10 19 6 22 -4 4 -11 1 -16 -7 -8 -12 -10 -9 -10 11 0 16 -10 33 -30 47 -37 28
-42 28 -30 -2z"/>
<path d="M896 1798 c3 -24 10 -67 15 -97 13 -78 12 -86 -6 -71 -8 7 -15 9 -15
4 0 -4 -11 3 -25 16 -17 16 -25 19 -25 9 0 -12 -2 -12 -9 0 -7 11 -13 7 -25
-18 -15 -27 -7 -46 9 -21 9 15 25 12 25 -5 0 -9 9 -15 24 -15 52 0 58 -9 30
-43 -14 -16 -21 -33 -17 -37 4 -5 40 -20 78 -35 77 -30 100 -45 70 -45 -14 0
10 -30 83 -103 56 -57 100 -106 96 -110 -10 -9 28 -9 42 1 12 8 46 73 41 79
-2 1 -14 -8 -27 -22 -24 -26 -50 -33 -50 -15 0 6 -16 25 -36 42 -19 17 -33 37
-30 44 4 10 -3 14 -19 14 -35 0 -31 23 8 54 34 28 30 31 -20 17 -24 -7 -33 -6
-37 5 -3 8 -1 14 3 14 5 0 1 18 -10 40 -26 54 -25 63 9 56 24 -5 23 -4 -7 12
-31 15 -38 28 -73 127 l-38 110 4 -72 c3 -40 3 -73 1 -73 -2 0 -18 41 -36 90
-17 50 -33 90 -35 90 -3 0 -2 -19 2 -42z"/>
<path d="M1498 1792 l-78 -15 0 -150 c0 -134 2 -148 16 -143 42 16 196 36 279
36 83 0 237 -20 279 -36 14 -5 16 9 16 144 l0 150 -87 16 c-112 20 -321 20
-425 -2z m222 -32 c0 -13 7 -20 19 -20 13 0 21 -8 23 -22 2 -15 11 -24 26 -26
34 -5 31 -52 -3 -52 -18 0 -25 -5 -25 -20 0 -13 -7 -20 -20 -20 -13 0 -20 -7
-20 -19 0 -14 -10 -20 -41 -25 -23 -4 -44 -4 -47 -1 -3 3 -6 22 -6 43 -1 26
-5 37 -16 37 -8 0 -15 -8 -15 -19 0 -10 -10 -22 -23 -27 -13 -5 -22 -17 -22
-29 0 -11 -6 -20 -14 -20 -7 0 -28 -3 -45 -6 l-31 -6 0 110 0 111 43 8 c36 8
42 6 45 -8 2 -10 13 -19 25 -21 15 -2 21 -9 19 -21 -2 -13 2 -18 15 -15 13 2
19 14 21 46 l3 42 45 0 c37 0 44 -3 44 -20z"/>
<path d="M1687 1723 c-4 -3 -7 -30 -7 -60 0 -40 4 -53 15 -53 8 0 15 9 15 20
0 13 7 20 20 20 11 0 20 7 20 15 0 8 -9 15 -20 15 -15 0 -20 7 -20 25 0 24
-10 32 -23 18z"/>
<path d="M1510 1650 c0 -47 3 -60 15 -60 9 0 15 9 15 25 0 18 5 25 20 25 11 0
20 7 20 15 0 8 -9 15 -20 15 -13 0 -20 7 -20 20 0 11 -7 20 -15 20 -12 0 -15
-13 -15 -60z"/>
<path d="M3030 1766 c0 -8 5 -18 10 -21 6 -3 10 1 10 9 0 8 -4 18 -10 21 -5 3
-10 -1 -10 -9z"/>
<path d="M255 1750 c-4 -6 -11 -7 -17 -4 -7 4 -8 2 -4 -4 5 -9 13 -9 27 -2 10
6 19 13 19 15 0 9 -19 5 -25 -5z"/>
<path d="M2324 1743 c-7 -11 -29 -18 -69 -21 l-59 -5 53 -23 c50 -22 131 -33
131 -17 0 4 -12 20 -27 36 -22 23 -24 29 -9 23 16 -5 17 -4 6 9 -15 18 -13 18
-26 -2z"/>
<path d="M3140 1750 c8 -5 20 -10 25 -10 6 0 3 5 -5 10 -8 5 -19 10 -25 10 -5
0 -3 -5 5 -10z"/>
<path d="M2610 1648 c0 -40 14 -51 23 -18 3 10 -1 27 -9 37 -12 16 -13 14 -14
-19z"/>
<path d="M3157 1629 c7 -7 15 -10 18 -7 3 3 -2 9 -12 12 -14 6 -15 5 -6 -5z"/>
<path d="M182 1611 c4 -13 18 -16 19 -4 0 4 -5 9 -11 12 -7 2 -11 -2 -8 -8z"/>
<path d="M2254 1592 c4 -7 12 -12 17 -12 6 0 26 -11 47 -25 26 -18 38 -21 44
-12 9 16 1 23 -42 35 -19 5 -44 13 -54 18 -14 5 -17 4 -12 -4z"/>
<path d="M103 1580 c-32 -13 -29 -17 7 -12 17 2 30 8 30 13 0 11 -8 11 -37 -1z"/>
<path d="M2949 1568 c0 -13 -3 -17 -6 -10 -7 19 -19 14 -31 -13 -11 -24 -11
-24 16 -13 37 16 56 34 48 47 -12 18 -26 12 -27 -11z"/>
<path d="M3080 1561 c0 -5 5 -13 10 -16 6 -3 10 -2 10 4 0 5 -4 13 -10 16 -5
3 -10 2 -10 -4z"/>
<path d="M2960 1536 c-9 -12 -8 -15 8 -13 12 0 18 6 15 14 -6 16 -8 16 -23 -1z"/>
<path d="M3010 1512 c0 -16 8 -36 17 -43 10 -8 14 -9 10 -2 -4 6 -3 14 3 18 5
3 10 12 10 18 0 7 -4 6 -10 -3 -8 -12 -10 -11 -10 7 0 12 -4 25 -10 28 -6 4
-10 -6 -10 -23z"/>
<path d="M140 1490 l-35 -31 41 20 c44 21 63 18 39 -5 -8 -8 -11 -22 -8 -31 5
-14 10 -10 20 16 11 25 11 36 2 47 -16 19 -20 18 -59 -16z"/>
<path d="M2885 1476 c-6 -27 -1 -45 21 -83 l29 -48 -48 39 c-39 32 -47 35 -47
20 0 -16 -2 -17 -10 -4 -7 11 -10 3 -10 -30 0 -32 -3 -41 -10 -30 -13 21 -15
15 -38 -85 -14 -64 -20 -80 -21 -55 -1 48 -19 65 -43 43 -10 -9 -18 -21 -18
-28 0 -6 -26 -19 -58 -28 -53 -15 -59 -19 -80 -62 -27 -55 -27 -58 -3 -50 13
4 23 0 30 -12 11 -20 12 -19 34 22 l16 30 1 -37 c0 -35 2 -38 28 -38 36 0 57
13 149 90 l77 65 -52 -69 c-29 -38 -50 -71 -48 -73 11 -12 50 24 87 80 22 34
38 53 34 42 -72 -205 -74 -215 -50 -215 18 0 89 32 93 43 2 4 8 4 14 1 6 -4 5
3 -1 15 -22 41 0 44 40 5 22 -21 39 -35 39 -30 0 4 -18 34 -41 68 -36 52 -40
63 -30 84 9 20 18 24 53 25 36 0 39 2 21 9 -37 15 -27 28 35 47 l57 18 -64 3
-64 3 23 25 c22 22 18 30 -12 25 -12 -2 -9 6 9 25 10 9 18 23 19 31 2 8 10 23
20 34 10 12 13 19 5 19 -9 0 -9 5 0 21 6 13 7 19 1 15 -6 -3 -13 2 -16 11 -2
10 -4 5 -3 -11 2 -21 -5 -33 -23 -44 -18 -11 -21 -12 -12 -2 16 18 15 30 -2
30 -7 0 -21 -10 -29 -23 -13 -20 -13 -25 -1 -33 11 -7 10 -13 -6 -34 l-20 -25
0 27 c0 15 -4 30 -10 33 -14 8 -13 78 1 92 6 6 8 16 4 23 -10 16 -37 -9 -30
-29 2 -9 0 -23 -5 -31 -8 -13 -10 -12 -10 3 0 9 -4 17 -10 17 -5 0 -7 13 -3
30 3 17 3 30 0 30 -3 0 -9 -15 -12 -34z m73 -197 c-2 -6 -8 -10 -13 -10 -5 0
-11 4 -13 10 -2 6 4 11 13 11 9 0 15 -5 13 -11z"/>
<path d="M2357 1480 c18 -11 44 -22 58 -26 24 -6 30 -32 6 -26 -6 1 -11 -8
-10 -20 0 -13 3 -17 6 -10 2 6 11 12 19 12 9 0 14 11 14 30 0 17 -4 30 -10 30
-5 0 -10 8 -10 18 0 12 -3 13 -8 5 -6 -10 -17 -10 -42 -3 -52 15 -59 12 -23
-10z"/>
<path d="M214 1439 c-17 -19 -17 -21 0 -50 10 -17 16 -32 14 -34 -2 -2 -39 16
-82 41 -44 24 -80 43 -82 41 -2 -2 32 -39 76 -82 44 -44 80 -83 80 -87 0 -15
-30 -8 -80 17 -53 27 -75 32 -49 12 8 -7 30 -25 49 -40 31 -27 32 -28 14 -43
-18 -14 -18 -14 4 -4 19 9 27 8 41 -4 10 -9 21 -16 25 -16 4 0 19 25 33 56 21
48 24 65 19 111 -4 31 -15 66 -25 79 -18 23 -18 23 -37 3z"/>
<path d="M2205 1360 c-37 -75 -54 -100 -68 -100 -15 0 -17 -3 -8 -14 9 -10 8
-15 -4 -20 -29 -11 -15 -26 25 -26 22 0 40 5 40 11 0 6 8 8 19 4 10 -3 34 1
52 9 45 19 72 29 84 30 5 1 16 12 23 26 13 23 13 23 9 3 -9 -40 11 -35 22 4 6
21 11 44 11 51 0 18 -18 14 -23 -5 -3 -13 -5 -10 -6 7 -2 25 -2 25 -17 5 -8
-11 -18 -20 -22 -20 -4 -1 -29 -11 -56 -23 -54 -25 -60 -26 -52 -13 4 5 8 33
11 63 3 29 8 65 11 81 3 15 4 27 2 27 -2 0 -26 -45 -53 -100z"/>
<path d="M890 1440 c0 -5 -7 -10 -16 -10 -8 0 -13 -4 -10 -9 5 -7 16 -94 20
-154 0 -9 6 -17 11 -16 6 0 9 6 7 11 -3 10 15 8 51 -7 10 -4 17 -3 17 4 0 6
-3 11 -7 11 -5 1 -19 10 -32 21 -20 16 -22 22 -11 32 7 7 10 7 7 1 -4 -7 10
-18 33 -27 54 -21 53 -6 -7 83 -45 66 -63 83 -63 60z"/>
<path d="M946 1443 c-7 -7 62 -83 76 -83 4 0 -2 17 -14 38 -28 48 -46 61 -62
45z"/>
<path d="M801 1394 c0 -11 3 -14 6 -6 3 7 2 16 -1 19 -3 4 -6 -2 -5 -13z"/>
<path d="M731 1351 c-11 -7 -9 -14 11 -33 13 -14 23 -29 21 -34 -2 -5 7 -21
20 -36 20 -25 24 -26 41 -13 17 13 16 17 -29 69 -26 31 -48 56 -49 56 0 0 -7
-4 -15 -9z"/>
<path d="M810 1357 c0 -11 39 -87 45 -87 6 0 -25 73 -36 85 -5 5 -9 6 -9 2z"/>
<path d="M257 1211 l-27 -26 22 -23 c17 -16 19 -22 8 -23 -8 0 -4 -5 9 -10 23
-9 23 -10 6 -29 -20 -22 -14 -26 14 -8 30 18 49 3 66 -54 9 -29 31 -84 51
-123 34 -68 35 -69 29 -27 -9 55 5 54 29 -4 10 -25 21 -43 23 -40 3 3 2 13 -2
23 -5 10 -9 20 -10 23 -1 3 -5 13 -8 23 -13 33 -16 47 -11 47 2 0 9 -10 14
-22 6 -16 7 -7 4 32 -2 30 -1 48 2 40 4 -8 13 -19 20 -23 8 -4 14 -17 14 -27
0 -10 5 -22 10 -25 6 -3 10 -1 10 6 0 7 6 4 14 -7 13 -17 15 -17 21 -2 4 9 -1
30 -9 47 -9 16 -16 41 -16 56 0 14 -4 25 -9 25 -4 0 -19 24 -32 53 -18 38 -29
52 -44 52 -29 -1 -45 -13 -45 -36 0 -10 -7 -19 -15 -19 -8 0 -15 -5 -15 -12 0
-6 -2 -9 -5 -7 -2 3 -1 20 4 37 6 20 6 32 0 32 -5 0 -9 -4 -9 -9 0 -5 -7 -11
-15 -15 -13 -5 -14 -2 -4 15 12 23 4 69 -11 69 -6 0 -11 -21 -11 -47 -2 -34
-3 -39 -6 -18 -5 33 -22 58 -24 35 -1 -8 -4 -1 -8 16 l-6 31 -28 -26z m163
-141 c0 -10 5 -20 10 -22 6 -2 13 -21 16 -43 l6 -40 -22 21 c-24 24 -44 124
-21 110 6 -4 11 -16 11 -26z"/>
<path d="M1290 1217 c-32 -15 -42 -29 -27 -39 18 -11 39 -10 32 3 -4 5 1 19
11 30 19 22 19 22 -16 6z"/>
<path d="M2108 1176 c-10 -7 -15 -16 -11 -19 3 -4 -2 -18 -11 -31 -15 -24 -15
-25 1 -19 10 3 23 9 28 12 6 3 16 6 24 8 17 2 32 24 25 35 -12 19 -40 26 -56
14z"/>
<path d="M1951 1145 c0 -16 10 -68 24 -115 20 -72 30 -90 62 -117 22 -19 42
-28 47 -23 10 10 36 -12 36 -29 0 -19 27 -12 76 22 34 22 51 42 58 65 13 47
-2 52 -35 12 -32 -38 -33 -38 -20 8 9 30 0 44 -14 22 -3 -5 -20 -19 -38 -32
l-31 -23 24 40 c13 21 18 35 11 31 -18 -12 -71 -14 -71 -3 0 5 -14 7 -30 5
-40 -6 -33 12 11 28 33 12 33 12 -16 7 l-51 -5 -21 68 c-15 52 -21 62 -22 39z"/>
<path d="M1295 1131 c11 -11 34 -23 50 -26 29 -6 28 -6 -10 19 -48 30 -67 34
-40 7z"/>
<path d="M1755 1106 c4 -21 1 -32 -12 -41 -10 -7 -15 -16 -11 -20 6 -6 108
-32 148 -38 16 -2 35 -25 27 -34 -3 -3 -21 1 -40 7 -23 9 -39 10 -52 3 -15 -9
-9 -13 36 -28 64 -21 90 -41 42 -32 -18 4 -33 5 -33 3 0 -5 87 -56 95 -56 3 0
5 34 4 76 -2 52 -8 78 -17 83 -10 6 -11 10 -3 15 6 4 11 14 11 22 0 16 -8 15
-88 -3 -12 -3 -22 -1 -21 3 1 5 1 16 0 24 -1 12 -4 12 -12 -2 -15 -27 -37 -22
-60 15 l-21 32 7 -29z"/>
<path d="M945 1100 c14 -16 20 -17 27 -8 13 22 9 28 -19 28 -26 0 -26 0 -8
-20z"/>
<path d="M654 1046 c3 -27 6 -67 7 -90 l1 -41 12 29 c11 24 11 39 -1 85 -19
72 -28 80 -19 17z"/>
<path d="M1310 1053 c0 -17 36 -43 59 -43 14 0 25 -9 31 -26 13 -33 13 -57 0
-49 -5 3 -10 4 -10 1 0 -3 9 -10 21 -17 18 -9 25 -6 50 23 15 18 28 36 29 39
0 4 -20 12 -45 18 -24 6 -52 20 -62 30 -20 22 -73 39 -73 24z"/>
<path d="M1688 1053 c7 -3 16 -2 19 1 4 3 -2 6 -13 5 -11 0 -14 -3 -6 -6z"/>
<path d="M1172 1031 c2 -11 12 -15 33 -13 51 6 48 22 -5 26 -23 2 -30 -2 -28
-13z"/>
<path d="M2327 1014 c-4 -4 -7 -14 -7 -23 0 -11 3 -12 11 -4 6 6 10 16 7 23
-2 6 -7 8 -11 4z"/>
<path d="M1213 982 c-33 -20 -42 -33 -45 -59 -5 -45 10 -53 37 -20 11 15 26
27 32 27 6 0 13 7 17 15 3 9 18 15 36 15 l32 0 -30 25 c-17 14 -31 25 -33 24
-2 0 -23 -12 -46 -27z"/>
<path d="M2928 943 c-15 -25 -14 -30 9 -92 14 -36 27 -68 30 -71 3 -3 2 27 -2
65 -8 70 -7 70 12 52 20 -17 20 -17 -1 27 -11 25 -23 45 -26 46 -3 0 -13 -12
-22 -27z"/>
<path d="M712 928 c3 -9 30 -14 79 -15 l74 -2 -55 15 c-42 12 -59 13 -74 4
-11 -7 -16 -8 -11 -1 3 6 1 11 -5 11 -7 0 -10 -6 -8 -12z"/>
<path d="M2397 916 c-4 -10 -1 -13 9 -9 15 6 19 23 5 23 -5 0 -11 -7 -14 -14z"/>
<path d="M1714 843 c-20 -38 -42 -77 -49 -89 -10 -15 -10 -25 -2 -40 9 -16 9
-17 -5 -6 -13 10 -17 10 -22 -3 -3 -9 -1 -25 4 -36 9 -16 7 -19 -9 -19 -37 0
-30 -16 15 -38 58 -29 71 -28 127 8 26 17 51 30 55 30 4 0 20 11 37 24 26 21
27 25 14 38 -10 11 -32 14 -77 12 -80 -5 -82 13 -5 43 31 13 51 17 45 11 -23
-23 -12 -25 28 -5 45 22 62 17 37 -11 -21 -23 -21 -32 -3 -32 23 0 56 55 56
94 0 34 -2 36 -56 52 -30 9 -58 13 -61 10 -4 -3 1 -6 10 -6 10 0 17 -4 17 -9
0 -18 -26 -18 -75 0 l-50 17 40 2 c32 1 36 3 20 10 -42 18 -54 11 -91 -57z
m36 -43 c7 -3 21 -6 45 -10 11 -1 -2 -6 -30 -10 -46 -6 -64 0 -65 21 0 6 38 5
50 -1z"/>
<path d="M1670 879 c-10 -18 -10 -19 7 -10 45 26 49 31 26 31 -12 0 -27 -9
-33 -21z"/>
<path d="M2348 845 c-18 -40 -17 -40 35 -50 29 -6 37 -4 35 6 -2 8 7 15 20 17
12 2 22 -2 22 -9 0 -6 9 0 20 14 28 35 26 49 -6 37 -34 -13 -39 -13 -24 5 11
13 6 15 -37 15 -46 0 -50 -2 -65 -35z"/>
<path d="M2868 855 c-19 -26 -24 -60 -9 -69 13 -9 28 15 34 57 7 43 -1 46 -25
12z"/>
<path d="M2285 810 c-3 -6 1 -7 9 -4 18 7 21 14 7 14 -6 0 -13 -4 -16 -10z"/>
<path d="M2827 803 c-4 -3 -7 -11 -7 -17 0 -6 5 -5 12 2 6 6 9 14 7 17 -3 3
-9 2 -12 -2z"/>
<path d="M655 780 c3 -5 11 -10 16 -10 6 0 7 5 4 10 -3 6 -11 10 -16 10 -6 0
-7 -4 -4 -10z"/>
<path d="M1105 781 c7 -13 96 -73 101 -69 12 13 -14 47 -45 61 -42 19 -65 22
-56 8z"/>
<path d="M603 761 c4 -28 12 -34 14 -11 1 11 -2 22 -8 25 -5 4 -8 -3 -6 -14z"/>
<path d="M2880 765 c-7 -9 -10 -18 -7 -21 3 -3 10 4 17 15 13 25 8 27 -10 6z"/>
<path d="M662 748 c-7 -7 -12 -22 -12 -35 0 -13 -4 -23 -10 -23 -5 0 -10 4
-10 9 0 4 -24 18 -52 30 -51 20 -52 20 -26 1 14 -11 37 -29 50 -40 l23 -19
-35 -2 c-34 -1 -34 -1 13 -14 56 -15 77 -29 136 -84 24 -23 44 -41 45 -39 2 2
1 35 -2 75 l-4 72 -53 27 c-35 17 -52 31 -48 40 6 17 1 18 -15 2z"/>
<path d="M696 745 c-3 -8 -4 -15 -2 -15 2 0 21 -7 41 -16 l38 -16 -29 31 c-33
35 -39 37 -48 16z"/>
<path d="M2210 725 c-7 -8 -8 -15 -2 -15 5 0 15 7 22 15 7 8 8 15 2 15 -5 0
-15 -7 -22 -15z"/>
<path d="M2302 729 c2 -6 8 -10 13 -10 5 0 11 4 13 10 2 6 -4 11 -13 11 -9 0
-15 -5 -13 -11z"/>
<path d="M2263 704 c-3 -8 -1 -20 6 -27 8 -8 11 -4 11 16 0 30 -7 35 -17 11z"/>
<path d="M2880 708 c0 -7 4 -19 9 -27 7 -10 9 -7 8 12 -2 26 -17 39 -17 15z"/>
<path d="M1550 666 c0 -8 7 -16 15 -20 17 -6 18 -4 9 18 -8 20 -24 21 -24 2z"/>
<path d="M1214 635 c22 -19 47 -35 57 -35 11 0 16 -5 13 -13 -3 -8 3 -20 12
-28 16 -12 17 -12 11 4 -4 10 -7 26 -7 35 0 9 -11 22 -25 29 -15 6 -25 7 -25
1 0 -5 -5 -6 -10 -3 -6 4 -8 10 -5 14 4 8 -37 32 -53 31 -4 -1 11 -16 32 -35z"/>
<path d="M1316 663 l-29 -5 29 -25 c20 -17 23 -23 10 -19 -16 6 -17 4 -6 -9
20 -24 35 -18 59 25 l22 40 -28 -1 c-15 -1 -41 -4 -57 -6z"/>
<path d="M1490 645 c-11 -13 -10 -14 4 -9 9 3 16 10 16 15 0 13 -6 11 -20 -6z"/>
<path d="M2260 640 c-13 -8 -12 -10 3 -10 9 0 17 5 17 10 0 12 -1 12 -20 0z"/>
<path d="M1090 637 c0 -4 11 -30 25 -57 14 -28 21 -50 16 -50 -5 0 -13 9 -16
20 -4 11 -10 18 -14 16 -4 -3 -24 6 -44 19 -44 30 -47 31 -44 3 3 -29 -49 -45
-56 -17 -7 25 -27 25 -27 0 0 -11 -4 -23 -10 -26 -5 -3 -10 4 -10 16 0 18 -3
19 -15 9 -8 -6 -18 -9 -24 -6 -5 3 -11 0 -14 -6 -3 -7 -12 3 -20 22 -16 37
-18 36 -36 -32 -7 -28 -6 -40 4 -48 7 -6 10 -22 7 -38 -4 -23 -3 -25 10 -15
22 19 28 6 28 -63 0 -34 3 -70 6 -78 6 -15 7 -15 18 -1 8 12 24 15 56 13 l44
-3 -60 -24 c-32 -13 -62 -27 -66 -30 -4 -4 47 1 115 11 69 9 126 13 131 8 5
-5 -22 -24 -63 -44 -39 -20 -71 -38 -71 -40 0 -2 37 5 83 15 134 31 161 34
152 19 -6 -9 -4 -11 5 -5 8 5 18 1 27 -10 7 -11 13 -13 13 -7 0 9 8 8 30 -3
40 -21 57 -19 29 3 -12 11 -23 26 -25 35 -3 23 30 22 84 -3 33 -15 42 -16 42
-5 0 15 -98 50 -254 90 -55 14 -102 28 -105 30 -2 3 24 5 59 5 54 0 61 2 50
15 -7 8 -20 15 -29 15 -9 0 -21 4 -28 8 -7 4 32 6 85 4 111 -4 172 12 172 46
0 24 -42 87 -58 87 -7 0 -16 5 -20 10 -9 14 -102 68 -102 60 0 -3 7 -20 16
-38 l16 -32 -38 35 c-21 19 -46 44 -56 55 -9 11 -17 16 -18 12z"/>
<path d="M1530 626 c0 -9 5 -16 10 -16 6 0 10 4 10 9 0 6 -4 13 -10 16 -5 3
-10 -1 -10 -9z"/>
<path d="M2298 635 c-3 -4 -2 -20 4 -36 6 -17 8 -32 5 -35 -3 -3 -8 8 -12 25
-5 24 -12 31 -31 31 -31 0 -30 -4 6 -43 17 -18 25 -34 19 -38 -6 -3 -9 -13 -7
-21 2 -8 -10 -26 -26 -40 -19 -16 -27 -31 -23 -41 5 -14 11 -14 58 -2 29 8 57
19 63 25 8 8 7 10 -4 6 -22 -9 -50 62 -37 92 10 23 -2 89 -15 77z m22 -176
c11 -7 4 -8 -25 -3 -50 8 -58 14 -19 14 16 0 36 -5 44 -11z"/>
<path d="M977 624 c-4 -4 -7 -17 -7 -28 0 -19 1 -19 17 -3 12 11 14 20 7 27
-6 6 -13 7 -17 4z"/>
<path d="M1070 596 c0 -2 8 -10 18 -17 15 -13 16 -12 3 4 -13 16 -21 21 -21
13z"/>
<path d="M1567 571 c3 -12 9 -21 14 -21 14 0 11 16 -5 29 -12 10 -13 8 -9 -8z"/>
<path d="M1722 574 c-23 -16 -30 -58 -11 -70 8 -5 10 1 5 19 -5 22 -2 26 23
32 16 3 32 13 35 21 7 19 -23 18 -52 -2z"/>
<path d="M1846 555 c-23 -34 -20 -38 9 -13 25 22 32 38 16 38 -5 0 -16 -11
-25 -25z"/>
<path d="M2773 535 c0 -22 2 -30 4 -17 2 12 2 30 0 40 -3 9 -5 -1 -4 -23z"/>
<path d="M2336 495 c4 -8 10 -15 14 -15 4 0 10 7 14 15 4 10 -1 15 -14 15 -13
0 -18 -5 -14 -15z"/>
<path d="M2100 450 c0 -5 7 -10 15 -10 8 0 15 5 15 10 0 6 -7 10 -15 10 -8 0
-15 -4 -15 -10z"/>
<path d="M1500 405 c0 -27 1 -28 24 -19 28 11 13 44 -20 44 -2 0 -4 -11 -4
-25z"/>
<path d="M2073 409 c14 -8 22 -8 30 0 8 8 3 11 -18 11 -26 -1 -28 -2 -12 -11z"/>
<path d="M2050 379 c0 -5 5 -7 10 -4 6 3 10 8 10 11 0 2 -4 4 -10 4 -5 0 -10
-5 -10 -11z"/>
<path d="M2200 300 c-12 -8 -13 -11 -1 -19 9 -6 10 -11 2 -15 -6 -4 -11 -3
-11 3 0 15 -37 23 -70 16 -35 -8 -37 -15 -10 -46 l20 -24 -6 29 c-6 27 -6 28
17 16 49 -25 49 -27 24 -93 -13 -34 -26 -71 -30 -82 -6 -17 62 76 90 124 6 9
20 31 33 48 12 17 22 36 22 42 0 14 -60 14 -80 1z"/>
<path d="M1998 248 c-9 -8 -18 -37 -22 -72 -4 -33 -5 -58 -2 -55 10 10 54 139
47 139 -4 0 -14 -6 -23 -12z"/>
<path d="M1470 230 c0 -11 4 -20 9 -20 5 0 13 -9 16 -21 4 -11 9 -18 12 -15 3
3 2 13 -2 23 -9 21 -12 29 -14 43 -2 19 -21 10 -21 -10z"/>
<path d="M1892 222 c-12 -2 -20 -7 -18 -11 3 -4 -1 -33 -8 -64 -7 -31 -11 -57
-9 -57 5 0 65 131 61 134 -2 1 -13 0 -26 -2z"/>
<path d="M1574 144 c-43 -53 -18 -46 35 10 24 25 30 36 19 36 -9 0 -33 -21
-54 -46z"/>
<path d="M1716 165 c-44 -68 -46 -78 -7 -35 23 25 41 48 41 53 0 15 -18 6 -34
-18z"/>
</g>
</svg>
